<svg xmlns:svg="http://www.w3.org/2000/svg" xmlns="http://www.w3.org/2000/svg" width="100" height="100" viewBox="0 0 100 100" version="1">
<style>
.s0{
	fill:none;
	stroke-linecap:round;
	stroke-linejoin:round;
	stroke-width:2.5;
	stroke:#000;
}
</style>  <g transform="translate(0,-952.36216)">
    <g transform="translate(6.5868257,-3.4426641)">
      <path d="m64 995c7 0 15 4 17 10 3 8 0 18-8 23-7 4-17 4-24 0-1-1-2-2-3-3M39 1006 39 1006 39 1006c0-4 3-7 7-7" class="s0"/>
      <path d="m34 987c4-1 8-4 9-8M81 1005 81 1005 81 1005c3-4 5-9 5-15 0-4-3-7-6-9-3-2-6-3-9-4 0-1-1-2-1-3-3-4-9-6-15-6-5 1-11 4-12 8-1 4 1 9 5 10M3 1000c-3-4-3-11 1-15 2-2 4-3 6-4 2-5 5-9 10-10 2-1 5 0 7-1 3-2 7-5 12-5 4 0 8 2 11 4M26 1022c-7 3-16 1-21-4-3-3-5-8-5-12 0-3 2-6 5-7 4-2 9-1 14-1M20 1013c3 7 9 12 16 13 5 0 11-2 14-6 4-4 7-12 13-11M57 1031c2 5 5 10 8 15 3 2 12-2 12-7 0-4-3-7-5-10" class="s0"/>
    </g>
  </g>
</svg>
