<?xml version="1.0" encoding="UTF-8" standalone="no"?>
<svg width="33px" height="26px" viewBox="0 0 33 26" xmlns="http://www.w3.org/2000/svg" xmlns:xlink="http://www.w3.org/1999/xlink">
    <g stroke="none" stroke-width="1" fill="none">
        <g transform="translate(-695, -190)" fill="#FFFFFF">
            <path d="M703.5,191.959764 C698.80558,191.959764 695,195.688784 695,200.288763 C695,202.833841 696.173539,205.192348 698.152818,206.763544 L704.109761,211.274919 L704.896845,211.870959 L705.509267,211.102864 L710.879973,204.366968 L712.478966,202.361524 L709.920316,202.798353 L702.249256,204.108005 L703.208913,205.676621 L710.409804,196.645321 L710.868249,196.070343 L710.437471,195.475177 C708.854042,193.287498 706.289923,191.959764 703.5,191.959764 Z M708.833782,195.438769 L701.632891,204.470069 L700.033898,206.475513 L702.592548,206.038684 L710.263608,204.729032 L709.303951,203.160417 L703.933245,209.896313 L705.332751,209.724259 L699.393791,205.226827 C697.896369,204.037809 697,202.236341 697,200.288763 C697,196.771132 699.910149,193.919529 703.5,193.919529 C705.634679,193.919529 707.593821,194.933998 708.806115,196.608913 L708.833782,195.438769 Z M726,198.328999 C726,200.276576 725.103631,202.078045 723.588226,203.281006 L712.310827,213.787035 L713.825069,213.943389 L710.915515,209.78029 L710.878457,210.937231 L720.706273,198.611262 L722.305266,196.605818 L719.746616,197.042647 L712.075556,198.3523 L713.035213,199.920915 L719.663071,191.608308 L718.875061,191.005032 L718.957272,191.981597 C719.136977,191.967071 719.317978,191.959764 719.5,191.959764 C723.089851,191.959764 726,194.811368 726,198.328999 Z M718.79285,190.028467 L718.356566,190.063732 L718.08705,190.401756 L711.459191,198.714364 L709.860198,200.719808 L712.418848,200.282979 L720.089908,198.973326 L719.130251,197.404711 L709.302435,209.730679 L708.851802,210.29586 L709.265377,210.88762 L712.174931,215.05072 L712.838375,216 L713.689173,215.207074 L724.906877,204.752412 C726.826461,203.232583 728,200.874077 728,198.328999 C728,193.72902 724.19442,190 719.5,190 C719.263085,190 719.027231,190.009522 718.79285,190.028467 Z"></path>
        </g>
    </g>
</svg>