<?xml version="1.0" encoding="UTF-8" standalone="no"?>
<svg width="30px" height="22px" viewBox="0 0 30 22" version="1.1" xmlns="http://www.w3.org/2000/svg" xmlns:xlink="http://www.w3.org/1999/xlink" xmlns:sketch="http://www.bohemiancoding.com/sketch/ns">
    <!-- Generator: Sketch 3.1 (8751) - http://www.bohemiancoding.com/sketch -->
    <title>BrokenHeart</title>
    <desc>Created with Sketch.</desc>
    <defs></defs>
    <g id="Page-1" stroke="none" stroke-width="1" fill="none" fill-rule="evenodd" sketch:type="MSPage">
        <g id="MeshMain-3" sketch:type="MSArtboardGroup" transform="translate(-820.000000, -177.000000)" fill="#FFFFFF">
            <path d="M828,177 C823.40804,177 820,180.357864 820,184 C820,186.854549 821.356719,188.808095 823,190 L834,199 L835,198 L831,194 L837,188 L831,182 C831,182 832.729188,179.530471 833,179 C831.648328,177.853303 829.731337,177 828,177 Z M842,177 C846.608538,177 850,180.345199 850,184 C850,186.81738 848.746447,188.735396 847,190 L838,197 L836,194 L841,188 L835,182 C835,182 836.409836,180.525081 838,178.684375 C839.479652,177.133458 841.156377,177 842,177 Z" id="BrokenHeart" sketch:type="MSShapeGroup"></path>
        </g>
    </g>
</svg>