<svg xmlns:svg="http://www.w3.org/2000/svg" xmlns="http://www.w3.org/2000/svg" width="100" height="100" viewBox="0 0 100 100" version="1">
  <style>
    path {
      fill: none;
      stroke-width: 3.5;
      stroke:#000;
    }
  </style>
  <g transform="translate(0,-952.256214)">
    <path d="m26.5 970c-13.75 0-24.75 10.75-24.75 24.25 0 7.5 3.5 14.25 9.25 18.75l17.5 13 2.25 1.75 1.75-2.25 15.75-19.5 4.75-5.75c0 0 0 0-22.75 3.75l16.5-20.25 1.25-1.75-1.25-1.75c-4.5-6.25-12-10.25-20.25-10.25z"/>
    <path d="m71.25 964.25-1.25 0c-6.75 8.5-13.5 16.75-20 25l-4.75 5.75 7.5-1.25 15.5-2.5c0 0-21 25.5-24.5 29.75l-1.25 1.5 1.25 1.75 8.5 12 1.9 2.75 2.5-2.25 32.75-30.25c5.5-4.5 9-11.25 9-18.5 0-13.25-11-24.25-24.75-24.25-0.75 0-1.5 0-2 0z"/>
  </g>
</svg>