<svg width="144" height="144" xmlns="http://www.w3.org/2000/svg">
 <g display="inline">
  <title>Layer 1</title>
  <g id="svg_1">
   <g id="svg_2">
    <g id="svg_3">
     <path id="svg_4" fill="#333" d="m116.93921,71.95032c-0.01064,-24.82623 -20.14143,-44.95703 -44.97826,-44.95703c-24.82623,0 -44.95703,20.1308 -44.96766,44.95703l17.98496,0c0.01064,-14.89362 12.08908,-26.97207 26.9827,-26.97207c14.89359,0 26.97208,12.06787 26.98271,26.97207l17.99554,0"/>
     <path id="svg_5" fill="#333" d="m143.92192,71.96095c0,-39.74107 -32.21989,-71.96095 -71.96097,-71.96095c-39.74107,0 -71.96095,32.21988 -71.96095,71.96095c0,39.74107 32.21988,71.95033 71.96095,71.95033l0,-17.98492c-29.80846,0 -53.96541,-24.15695 -53.96541,-53.96542c0,-29.80846 24.16758,-53.96541 53.96541,-53.96541c29.80847,0 53.96542,24.15695 53.96542,53.96541l17.98492,0"/>
    </g>
   </g>
  </g>
 </g>
</svg>