<?xml version="1.0" encoding="UTF-8" standalone="no"?>
<svg width="36px" height="27px" viewBox="0 0 36 27" xmlns="http://www.w3.org/2000/svg" xmlns:xlink="http://www.w3.org/1999/xlink" xmlns="http://www.w3.org/2000/svg" xmlns:xlink="http://www.w3.org/1999/xlink">
    <g stroke="none" stroke-width="1" fill="none" fill-rule="evenodd">
        <g transform="translate(-182, -671)" fill="#FFFFFF">
            <path d="M212.857033,681.518363 L215.690468,682.688382 L216.453814,680.839788 L211.102497,678.63005 L210.16398,678.242505 L209.790808,679.18683 L207.659404,684.580415 L209.519437,685.315451 L210.883733,681.863056 C211.087845,682.719038 211.192308,683.602131 211.192308,684.5 C211.192308,690.847828 205.960872,696 199.5,696 C198.061644,696 196.660612,695.744911 195.346071,695.253382 L194.645603,697.126707 C196.183431,697.701726 197.821648,698 199.5,698 C207.058664,698 213.192308,691.95929 213.192308,684.5 C213.192308,683.486714 213.078868,682.488281 212.857033,681.518363 Z M186.273061,688.001897 L183.371544,686.803764 L182.608197,688.652358 L187.959514,690.862096 L188.898032,691.249641 L189.271204,690.305316 L191.402608,684.911731 L189.542575,684.176695 L188.217469,687.529917 C187.946989,686.553059 187.807692,685.536588 187.807692,684.5 C187.807692,678.152172 193.039128,673 199.5,673 C201.2445,673 202.932844,673.375395 204.475021,674.089704 L205.315596,672.274922 C203.511161,671.43914 201.536125,671 199.5,671 C191.941336,671 185.807692,677.04071 185.807692,684.5 C185.807692,685.696361 185.965877,686.871282 186.273061,688.001897 L186.273061,688.001897 Z"></path>
        </g>
    </g>
</svg>