<svg xmlns:svg="http://www.w3.org/2000/svg" xmlns="http://www.w3.org/2000/svg" width="100" height="100" viewBox="0 0 100 100" version="1.1">
    <style>
        path, circle {
        	fill: none;
        	stroke-linecap: round;
        	stroke-width: 2.5;
        	stroke: #000;
        }
    </style> 
    <g transform="translate(0,-952.36216)">
        <circle cx="50" cy="1002.36" r="10" class="fillMe"/>
        <path d="m27.07 979.49c-6.09 6.08-9.51 14.33-9.52 22.93 0.01 8.6 3.43 16.85 9.52 22.93M72.94 1025.35c6.09-6.08 9.51-14.33 9.52-22.93-0.01-8.6-3.43-16.85-9.52-22.93"/>
        <path d="m33.75 986.17c-4.31 4.31-6.74 10.16-6.75 16.25 0.01 6.1 2.43 11.94 6.75 16.25"/>
        <path d="m66.26 1018.67c4.31-4.31 6.74-10.16 6.75-16.25-0.01-6.1-2.43-11.94-6.75-16.25"/>
        <path d="M20.32 972.74C12.44 980.61 8.01 991.28 8 1002.42c0.01 11.14 4.44 21.81 12.32 29.68M79.69 1032.1c7.88-7.87 12.31-18.54 12.32-29.68-0.01-11.14-4.44-21.81-12.32-29.68"/>
    </g>
</svg>