<?xml version="1.0" encoding="UTF-8" standalone="no"?>
<svg width="26px" height="30px" viewBox="0 0 26 30" xmlns="http://www.w3.org/2000/svg" xmlns:xlink="http://www.w3.org/1999/xlink">
    <g stroke="none" stroke-width="1" fill="none" fill-rule="evenodd">
        <g transform="translate(-900, -667)" fill="#FFFFFF">
            <path d="M925,697 L926,697 L926,695 L925,695 L901,695 L900,695 L900,697 L901,697 L925,697 Z M925,689 L926,689 L926,687 L925,687 L901,687 L900,687 L900,689 L901,689 L925,689 Z M925,681 L926,681 L926,679 L925,679 L901,679 L900,679 L900,681 L901,681 L925,681 Z M925,693 L926,693 L926,691 L925,691 L901,691 L900,691 L900,693 L901,693 L925,693 Z M925,685 L926,685 L926,683 L925,683 L901,683 L900,683 L900,685 L901,685 L925,685 Z M925,677 L926,677 L926,675 L925,675 L901,675 L900,675 L900,677 L901,677 L925,677 Z M925,673 L926,673 L926,671 L925,671 L901,671 L900,671 L900,673 L901,673 L925,673 Z M925,669 L926,669 L926,667 L925,667 L901,667 L900,667 L900,669 L901,669 L925,669 Z"></path>
        </g>
    </g>
</svg>