<?xml version="1.0" encoding="UTF-8" standalone="no"?>
<svg  width="30px" height="25px" viewBox="0 0 30 25" xmlns="http://www.w3.org/2000/svg" xmlns:xlink="http://www.w3.org/1999/xlink">
    <g stroke="none" stroke-width="1" fill="none" fill-rule="evenodd">
        <g transform="translate(-903, -191)" fill="#FFFFFF">
            <path d="M911.5,193 C913.850059,193 915.979998,194.256805 917.133945,196.255774 L918,197.756032 L918.866055,196.255774 C920.020002,194.256805 922.149941,193 924.5,193 C928.089851,193 931,195.910149 931,199.5 C931,201.487563 930.103631,203.326017 928.588226,204.553677 L917.388505,213.208752 L918.611495,213.208752 L907.393791,204.539447 C905.896369,203.326017 905,201.487563 905,199.5 C905,195.910149 907.910149,193 911.5,193 Z M906.152818,206.107713 L917.388505,214.791248 L918,215.263826 L918.611495,214.791248 L929.829199,206.121943 C931.826461,204.50426 933,202.097331 933,199.5 C933,194.80558 929.19442,191 924.5,191 C921.42804,191 918.641599,192.644185 917.133945,195.255877 L918.866055,195.255877 C917.358401,192.644185 914.57196,191 911.5,191 C906.80558,191 903,194.80558 903,199.5 C903,202.097331 904.173539,204.50426 906.152818,206.107713 Z"></path>
        </g>
    </g>
</svg>