<svg xmlns="http://www.w3.org/2000/svg" width="84px" height="64px" viewBox="0 0 84 64" version="1.1">
  <g stroke="none" stroke-width="1" fill="none" fill-rule="evenodd">
    <g id="logo" transform="translate(-89.000000, -219.000000)" fill="#fff">
      <path d="M97.072987 259.264127L96.4498267 258.560163 90.8172163 252.197179 89.8229775 251.074019 92.0692982 249.085542 93.063537 250.208702 98.5729715 256.432537 104.080897 250.208842 105.074996 249.085558 107.321565 251.073755 106.327466 252.197039 100.696271 258.560022 100.072987 259.264304 100.072987 280.144305 100.072987 281.644305 97.072987 281.644305 97.072987 280.144305 97.072987 259.264127 97.072987 259.264127ZM160.835156 259.264127L160.211995 258.560163 154.579385 252.197179 153.585146 251.074019 155.831467 249.085542 156.825706 250.208702 162.33514 256.432537 167.843066 250.208842 168.837165 249.085558 171.083734 251.073755 170.089635 252.197039 164.45844 258.560022 163.835156 259.264304 163.835156 280.144305 163.835156 281.644305 160.835156 281.644305 160.835156 280.144305 160.835156 259.264127 160.835156 259.264127 160.835156 259.264127ZM141.252316 225.792747L136.965117 220.84176 135.983199 219.707812 133.715303 221.671648 134.697221 222.805596 150.415072 240.957043 130.453364 264.010827 110.49164 240.957025 126.208134 222.805546 127.190002 221.671555 124.92202 219.707819 123.940152 220.84181 119.65451 225.791434 115.264973 220.722818 114.282994 219.588923 112.015204 221.552881 112.997183 222.686776 117.670395 228.082952 108.50747 238.665506 99.3449173 228.08367 104.018752 222.686776 105.000731 221.552881 102.732941 219.588923 101.750962 220.722818 97.3607751 225.792184 93.0743541 220.841795 92.0924707 219.707817 89.8245157 221.671584 90.8063991 222.805561 128.319386 266.129324 128.953364 266.861505 128.953364 266.861505 128.953364 280.144305 128.953364 281.644305 131.953364 281.644305 131.953364 280.144305 131.953364 266.861505 131.953364 266.861505 132.587341 266.129324 170.100328 222.805561 171.082212 221.671584 168.814257 219.707817 167.832373 220.841795 163.546131 225.791977 159.15887 220.723134 158.177207 219.588965 155.90887 221.55229 156.890533 222.686459 161.561909 228.083556 152.399229 238.665538 152.399229 238.665538 143.236559 228.08421 147.909681 222.686617 148.891502 221.552586 146.623438 219.588944 145.641618 220.722976 141.252316 225.792747 141.252316 225.792747Z"/>
    </g>
  </g>
</svg>
